# xmcd
#
# Track frame offsets:
# 150
# 14817
# 32532
# 51652
# 62689
# 77592
# 95262
# 107822
# 123685
# 140852
# 159595
# 175067
#
# Disc length: 2493 seconds
#
#
# Revision: 2
# Processed by: cddbd v1.5.2PL0 Copyright (c) Steve Scherf et al.
# Submitted via: FreeRIP 2.90 
#
DISCID=a809bb0c
DTITLE=Sérgio Reis - MPB no JT 8
DYEAR=1997
DGENRE=MPB
TTITLE0=Baita Macho
TTITLE1=Bandeira do Divino
TTITLE2=O Menino da Gaita
TTITLE3=Pe o de Boiadeiro
TTITLE4=C lix Bento
TTITLE5=Serafim e seus Filhos
TTITLE6=Chalana
TTITLE7=Boiadeiro Errante
TTITLE8=Filho Adotivo
TTITLE9=Disparada
TTITLE10=Sina de Violeiro
TTITLE11=Prociss o
EXTD=
EXTT0=
EXTT1=
EXTT2=
EXTT3=
EXTT4=
EXTT5=
EXTT6=
EXTT7=
EXTT8=
EXTT9=
EXTT10=
EXTT11=
PLAYORDER=
